<svg version="1.1" xmlns:xlink="http://www.w3.org/1999/xlink" xmlns="http://www.w3.org/2000/svg" height="480" width="640">
<line x1="609" y1="476" x2="609" y2="476" style="stroke:rgb(0,0,0);stroke-width:1" />
<line x1="609" y1="476" x2="472" y2="464" style="stroke:rgb(0,0,0);stroke-width:1" />
<line x1="472" y1="464" x2="609" y2="476" style="stroke:rgb(0,0,0);stroke-width:1" />
<line x1="609" y1="476" x2="455" y2="517" style="stroke:rgb(255,0,0);stroke-width:1" />
<line x1="455" y1="517" x2="472" y2="464" style="stroke:rgb(255,0,0);stroke-width:1" />
<line x1="472" y1="464" x2="609" y2="476" style="stroke:rgb(255,0,0);stroke-width:1" />
<line x1="455" y1="517" x2="240" y2="489" style="stroke:rgb(255,0,0);stroke-width:1" />
<line x1="240" y1="489" x2="472" y2="464" style="stroke:rgb(255,0,0);stroke-width:1" />
<line x1="472" y1="464" x2="455" y2="517" style="stroke:rgb(255,0,0);stroke-width:1" />
<line x1="472" y1="464" x2="240" y2="489" style="stroke:rgb(255,0,0);stroke-width:1" />
<line x1="240" y1="489" x2="271" y2="431" style="stroke:rgb(255,0,0);stroke-width:1" />
<line x1="271" y1="431" x2="472" y2="464" style="stroke:rgb(255,0,0);stroke-width:1" />
<line x1="103" y1="466" x2="131" y2="418" style="stroke:rgb(255,0,0);stroke-width:1" />
<line x1="131" y1="418" x2="240" y2="489" style="stroke:rgb(255,0,0);stroke-width:1" />
<line x1="240" y1="489" x2="103" y2="466" style="stroke:rgb(255,0,0);stroke-width:1" />
<line x1="240" y1="489" x2="131" y2="418" style="stroke:rgb(255,0,0);stroke-width:1" />
<line x1="131" y1="418" x2="271" y2="431" style="stroke:rgb(255,0,0);stroke-width:1" />
<line x1="271" y1="431" x2="240" y2="489" style="stroke:rgb(255,0,0);stroke-width:1" />
<line x1="472" y1="464" x2="476" y2="398" style="stroke:rgb(0,0,0);stroke-width:1" />
<line x1="476" y1="398" x2="609" y2="476" style="stroke:rgb(0,0,0);stroke-width:1" />
<line x1="609" y1="476" x2="472" y2="464" style="stroke:rgb(0,0,0);stroke-width:1" />
<line x1="609" y1="476" x2="476" y2="398" style="stroke:rgb(0,0,0);stroke-width:1" />
<line x1="476" y1="398" x2="611" y2="453" style="stroke:rgb(0,0,0);stroke-width:1" />
<line x1="611" y1="453" x2="609" y2="476" style="stroke:rgb(0,0,0);stroke-width:1" />
<line x1="472" y1="464" x2="271" y2="431" style="stroke:rgb(0,0,0);stroke-width:1" />
<line x1="271" y1="431" x2="476" y2="398" style="stroke:rgb(0,0,0);stroke-width:1" />
<line x1="476" y1="398" x2="472" y2="464" style="stroke:rgb(0,0,0);stroke-width:1" />
<line x1="476" y1="398" x2="271" y2="431" style="stroke:rgb(0,0,0);stroke-width:1" />
<line x1="271" y1="431" x2="273" y2="367" style="stroke:rgb(0,0,0);stroke-width:1" />
<line x1="273" y1="367" x2="476" y2="398" style="stroke:rgb(0,0,0);stroke-width:1" />
<line x1="131" y1="418" x2="123" y2="355" style="stroke:rgb(0,0,0);stroke-width:1" />
<line x1="123" y1="355" x2="271" y2="431" style="stroke:rgb(0,0,0);stroke-width:1" />
<line x1="271" y1="431" x2="131" y2="418" style="stroke:rgb(0,0,0);stroke-width:1" />
<line x1="271" y1="431" x2="123" y2="355" style="stroke:rgb(0,0,0);stroke-width:1" />
<line x1="123" y1="355" x2="273" y2="367" style="stroke:rgb(0,0,0);stroke-width:1" />
<line x1="273" y1="367" x2="271" y2="431" style="stroke:rgb(0,0,0);stroke-width:1" />
<line x1="476" y1="398" x2="457" y2="433" style="stroke:rgb(0,0,0);stroke-width:1" />
<line x1="457" y1="433" x2="611" y2="453" style="stroke:rgb(0,0,0);stroke-width:1" />
<line x1="611" y1="453" x2="476" y2="398" style="stroke:rgb(0,0,0);stroke-width:1" />
<line x1="611" y1="453" x2="457" y2="433" style="stroke:rgb(0,0,0);stroke-width:1" />
<line x1="457" y1="433" x2="611" y2="453" style="stroke:rgb(0,0,0);stroke-width:1" />
<line x1="611" y1="453" x2="611" y2="453" style="stroke:rgb(0,0,0);stroke-width:1" />
<line x1="273" y1="367" x2="238" y2="405" style="stroke:rgb(0,0,0);stroke-width:1" />
<line x1="238" y1="405" x2="476" y2="398" style="stroke:rgb(0,0,0);stroke-width:1" />
<line x1="476" y1="398" x2="273" y2="367" style="stroke:rgb(0,0,0);stroke-width:1" />
<line x1="476" y1="398" x2="238" y2="405" style="stroke:rgb(0,0,0);stroke-width:1" />
<line x1="238" y1="405" x2="457" y2="433" style="stroke:rgb(0,0,0);stroke-width:1" />
<line x1="457" y1="433" x2="476" y2="398" style="stroke:rgb(0,0,0);stroke-width:1" />
<line x1="273" y1="367" x2="123" y2="355" style="stroke:rgb(0,0,0);stroke-width:1" />
<line x1="123" y1="355" x2="238" y2="405" style="stroke:rgb(0,0,0);stroke-width:1" />
<line x1="238" y1="405" x2="273" y2="367" style="stroke:rgb(0,0,0);stroke-width:1" />
<line x1="238" y1="405" x2="123" y2="355" style="stroke:rgb(0,0,0);stroke-width:1" />
<line x1="123" y1="355" x2="86" y2="386" style="stroke:rgb(0,0,0);stroke-width:1" />
<line x1="86" y1="386" x2="238" y2="405" style="stroke:rgb(0,0,0);stroke-width:1" />
<line x1="436" y1="474" x2="611" y2="453" style="stroke:rgb(0,0,0);stroke-width:1" />
<line x1="611" y1="453" x2="457" y2="433" style="stroke:rgb(0,0,0);stroke-width:1" />
<line x1="457" y1="433" x2="436" y2="474" style="stroke:rgb(0,0,0);stroke-width:1" />
<line x1="611" y1="453" x2="457" y2="433" style="stroke:rgb(0,0,0);stroke-width:1" />
<line x1="457" y1="433" x2="611" y2="453" style="stroke:rgb(0,0,0);stroke-width:1" />
<line x1="611" y1="453" x2="611" y2="453" style="stroke:rgb(0,0,0);stroke-width:1" />
<line x1="457" y1="433" x2="238" y2="405" style="stroke:rgb(0,0,0);stroke-width:1" />
<line x1="238" y1="405" x2="436" y2="474" style="stroke:rgb(0,0,0);stroke-width:1" />
<line x1="436" y1="474" x2="457" y2="433" style="stroke:rgb(0,0,0);stroke-width:1" />
<line x1="436" y1="474" x2="238" y2="405" style="stroke:rgb(0,0,0);stroke-width:1" />
<line x1="238" y1="405" x2="198" y2="449" style="stroke:rgb(0,0,0);stroke-width:1" />
<line x1="198" y1="449" x2="436" y2="474" style="stroke:rgb(0,0,0);stroke-width:1" />
<line x1="86" y1="386" x2="44" y2="420" style="stroke:rgb(0,0,0);stroke-width:1" />
<line x1="44" y1="420" x2="238" y2="405" style="stroke:rgb(0,0,0);stroke-width:1" />
<line x1="238" y1="405" x2="86" y2="386" style="stroke:rgb(0,0,0);stroke-width:1" />
<line x1="238" y1="405" x2="44" y2="420" style="stroke:rgb(0,0,0);stroke-width:1" />
<line x1="44" y1="420" x2="198" y2="449" style="stroke:rgb(0,0,0);stroke-width:1" />
<line x1="198" y1="449" x2="238" y2="405" style="stroke:rgb(0,0,0);stroke-width:1" />
<line x1="611" y1="453" x2="436" y2="474" style="stroke:rgb(0,0,0);stroke-width:1" />
<line x1="436" y1="474" x2="609" y2="475" style="stroke:rgb(0,0,0);stroke-width:1" />
<line x1="609" y1="475" x2="611" y2="453" style="stroke:rgb(0,0,0);stroke-width:1" />
<line x1="609" y1="475" x2="436" y2="474" style="stroke:rgb(255,0,0);stroke-width:1" />
<line x1="436" y1="474" x2="436" y2="538" style="stroke:rgb(255,0,0);stroke-width:1" />
<line x1="436" y1="538" x2="609" y2="475" style="stroke:rgb(255,0,0);stroke-width:1" />
<line x1="198" y1="449" x2="204" y2="511" style="stroke:rgb(255,0,0);stroke-width:1" />
<line x1="204" y1="511" x2="436" y2="474" style="stroke:rgb(255,0,0);stroke-width:1" />
<line x1="436" y1="474" x2="198" y2="449" style="stroke:rgb(255,0,0);stroke-width:1" />
<line x1="436" y1="474" x2="204" y2="511" style="stroke:rgb(255,0,0);stroke-width:1" />
<line x1="204" y1="511" x2="436" y2="538" style="stroke:rgb(255,0,0);stroke-width:1" />
<line x1="436" y1="538" x2="436" y2="474" style="stroke:rgb(255,0,0);stroke-width:1" />
<line x1="198" y1="449" x2="44" y2="420" style="stroke:rgb(255,0,0);stroke-width:1" />
<line x1="44" y1="420" x2="204" y2="511" style="stroke:rgb(255,0,0);stroke-width:1" />
<line x1="204" y1="511" x2="198" y2="449" style="stroke:rgb(255,0,0);stroke-width:1" />
<line x1="204" y1="511" x2="44" y2="420" style="stroke:rgb(255,0,0);stroke-width:1" />
<line x1="44" y1="420" x2="63" y2="482" style="stroke:rgb(255,0,0);stroke-width:1" />
<line x1="63" y1="482" x2="204" y2="511" style="stroke:rgb(255,0,0);stroke-width:1" />
<line x1="609" y1="475" x2="436" y2="538" style="stroke:rgb(255,0,0);stroke-width:1" />
<line x1="436" y1="538" x2="609" y2="476" style="stroke:rgb(255,0,0);stroke-width:1" />
<line x1="609" y1="476" x2="609" y2="475" style="stroke:rgb(255,0,0);stroke-width:1" />
<line x1="436" y1="538" x2="455" y2="517" style="stroke:rgb(255,0,0);stroke-width:1" />
<line x1="455" y1="517" x2="609" y2="476" style="stroke:rgb(255,0,0);stroke-width:1" />
<line x1="609" y1="476" x2="436" y2="538" style="stroke:rgb(255,0,0);stroke-width:1" />
<line x1="204" y1="511" x2="240" y2="489" style="stroke:rgb(255,0,0);stroke-width:1" />
<line x1="240" y1="489" x2="436" y2="538" style="stroke:rgb(255,0,0);stroke-width:1" />
<line x1="436" y1="538" x2="204" y2="511" style="stroke:rgb(255,0,0);stroke-width:1" />
<line x1="436" y1="538" x2="240" y2="489" style="stroke:rgb(255,0,0);stroke-width:1" />
<line x1="240" y1="489" x2="455" y2="517" style="stroke:rgb(255,0,0);stroke-width:1" />
<line x1="455" y1="517" x2="436" y2="538" style="stroke:rgb(255,0,0);stroke-width:1" />
<line x1="204" y1="511" x2="63" y2="482" style="stroke:rgb(255,0,0);stroke-width:1" />
<line x1="63" y1="482" x2="240" y2="489" style="stroke:rgb(255,0,0);stroke-width:1" />
<line x1="240" y1="489" x2="204" y2="511" style="stroke:rgb(255,0,0);stroke-width:1" />
<line x1="240" y1="489" x2="63" y2="482" style="stroke:rgb(255,0,0);stroke-width:1" />
<line x1="63" y1="482" x2="103" y2="466" style="stroke:rgb(255,0,0);stroke-width:1" />
<line x1="103" y1="466" x2="240" y2="489" style="stroke:rgb(255,0,0);stroke-width:1" />
<line x1="103" y1="466" x2="63" y2="482" style="stroke:rgb(255,0,0);stroke-width:1" />
<line x1="63" y1="482" x2="99" y2="449" style="stroke:rgb(255,0,0);stroke-width:1" />
<line x1="99" y1="449" x2="103" y2="466" style="stroke:rgb(255,0,0);stroke-width:1" />
<line x1="103" y1="466" x2="99" y2="449" style="stroke:rgb(0,0,0);stroke-width:1" />
<line x1="99" y1="449" x2="131" y2="418" style="stroke:rgb(0,0,0);stroke-width:1" />
<line x1="131" y1="418" x2="103" y2="466" style="stroke:rgb(0,0,0);stroke-width:1" />
<line x1="99" y1="449" x2="63" y2="482" style="stroke:rgb(255,0,0);stroke-width:1" />
<line x1="63" y1="482" x2="86" y2="386" style="stroke:rgb(255,0,0);stroke-width:1" />
<line x1="86" y1="386" x2="99" y2="449" style="stroke:rgb(255,0,0);stroke-width:1" />
<line x1="86" y1="386" x2="63" y2="482" style="stroke:rgb(255,0,0);stroke-width:1" />
<line x1="63" y1="482" x2="44" y2="420" style="stroke:rgb(255,0,0);stroke-width:1" />
<line x1="44" y1="420" x2="86" y2="386" style="stroke:rgb(255,0,0);stroke-width:1" />
<line x1="99" y1="449" x2="86" y2="386" style="stroke:rgb(0,0,0);stroke-width:1" />
<line x1="86" y1="386" x2="131" y2="418" style="stroke:rgb(0,0,0);stroke-width:1" />
<line x1="131" y1="418" x2="99" y2="449" style="stroke:rgb(0,0,0);stroke-width:1" />
<line x1="131" y1="418" x2="86" y2="386" style="stroke:rgb(0,0,0);stroke-width:1" />
<line x1="86" y1="386" x2="123" y2="355" style="stroke:rgb(0,0,0);stroke-width:1" />
<line x1="123" y1="355" x2="131" y2="418" style="stroke:rgb(0,0,0);stroke-width:1" />
<line x1="609" y1="476" x2="609" y2="476" style="stroke:rgb(0,0,0);stroke-width:1" />
<line x1="609" y1="476" x2="609" y2="475" style="stroke:rgb(0,0,0);stroke-width:1" />
<line x1="609" y1="475" x2="609" y2="476" style="stroke:rgb(0,0,0);stroke-width:1" />
<line x1="609" y1="476" x2="609" y2="476" style="stroke:rgb(0,0,0);stroke-width:1" />
<line x1="609" y1="476" x2="609" y2="476" style="stroke:rgb(0,0,0);stroke-width:1" />
<line x1="609" y1="476" x2="609" y2="476" style="stroke:rgb(0,0,0);stroke-width:1" />
<line x1="609" y1="475" x2="609" y2="476" style="stroke:rgb(0,0,0);stroke-width:1" />
<line x1="609" y1="476" x2="611" y2="453" style="stroke:rgb(0,0,0);stroke-width:1" />
<line x1="611" y1="453" x2="609" y2="475" style="stroke:rgb(0,0,0);stroke-width:1" />
<line x1="611" y1="453" x2="609" y2="476" style="stroke:rgb(0,0,0);stroke-width:1" />
<line x1="609" y1="476" x2="611" y2="453" style="stroke:rgb(0,0,0);stroke-width:1" />
<line x1="611" y1="453" x2="611" y2="453" style="stroke:rgb(0,0,0);stroke-width:1" />
<line x1="609" y1="476" x2="609" y2="476" style="stroke:rgb(0,0,0);stroke-width:1" />
<line x1="609" y1="476" x2="611" y2="453" style="stroke:rgb(0,0,0);stroke-width:1" />
<line x1="611" y1="453" x2="609" y2="476" style="stroke:rgb(0,0,0);stroke-width:1" />
<line x1="611" y1="453" x2="609" y2="476" style="stroke:rgb(0,0,0);stroke-width:1" />
<line x1="609" y1="476" x2="611" y2="453" style="stroke:rgb(0,0,0);stroke-width:1" />
<line x1="611" y1="453" x2="611" y2="453" style="stroke:rgb(0,0,0);stroke-width:1" />
<line x1="285" y1="398" x2="278" y2="-84" style="stroke:rgb(255,0,0);stroke-width:1" />
<line x1="278" y1="-84" x2="51" y2="367" style="stroke:rgb(255,0,0);stroke-width:1" />
<line x1="51" y1="367" x2="285" y2="398" style="stroke:rgb(255,0,0);stroke-width:1" />
<line x1="610" y1="446" x2="291" y2="-71" style="stroke:rgb(255,0,0);stroke-width:1" />
<line x1="291" y1="-71" x2="440" y2="428" style="stroke:rgb(255,0,0);stroke-width:1" />
<line x1="440" y1="428" x2="610" y2="446" style="stroke:rgb(255,0,0);stroke-width:1" />
<line x1="298" y1="-68" x2="302" y2="394" style="stroke:rgb(255,0,0);stroke-width:1" />
<line x1="302" y1="394" x2="449" y2="414" style="stroke:rgb(255,0,0);stroke-width:1" />
<line x1="449" y1="414" x2="298" y2="-68" style="stroke:rgb(255,0,0);stroke-width:1" />
</svg>
